<svg xmlns="http://www.w3.org/2000/svg" width="100" height="100" viewBox="0 0 100 100"><g><path d="M14.254 71.932c-1.739-.502-3.03-2.094-3.03-3.988v-42.71c0-2.292 1.877-4.167 4.168-4.167h67.53c2.292 0 4.168 1.875 4.168 4.167v42.708c0 1.895-1.29 3.488-3.03 3.99h-69.806zm.857-3.28h68.09v-44.129h-68.089l-.001 44.129z"/><path d="M94.289 73.869h-39.726c-.021.436-.198 1.756-1.684 1.756h-7.602c-1.69 0-1.897-1.32-1.921-1.756h-37.646s0 4.424 3.234 4.424h81.853c3.644 0 3.492-4.424 3.492-4.424z"/><path fill-rule="evenodd" clip-rule="evenodd" d="M77.399 64.922h-16.566v-7.146h16.566v7.146zM77.399 35.683h-55.018v-7.146h55.018v7.146z"/><g fill-rule="evenodd" clip-rule="evenodd"><path d="M58.185 62.256h-16.565v-1.797h16.565v1.797zM58.185 64.893h-16.565v-1.795h16.565v1.795zM58.185 59.617h-16.565v-1.795h16.565v1.795z"/></g><g fill-rule="evenodd" clip-rule="evenodd"><path d="M77.399 42.786h-16.566v-1.797h16.566v1.797zM77.399 45.423h-16.566v-1.795h16.566v1.795zM77.399 40.148h-16.566v-1.796h16.566v1.796z"/></g><g fill-rule="evenodd" clip-rule="evenodd"><path d="M77.399 50.68h-16.566v-1.796h16.566v1.796zM77.399 53.316h-16.566v-1.795h16.566v1.795zM77.399 48.042h-16.566v-1.795h16.566v1.795z"/></g><g fill-rule="evenodd" clip-rule="evenodd"><path d="M38.945 62.256h-16.565v-1.797h16.565v1.797zM38.945 64.893h-16.565v-1.795h16.565v1.795zM38.945 59.617h-16.565v-1.795h16.565v1.795z"/></g><g fill-rule="evenodd" clip-rule="evenodd"><path d="M58.185 42.786h-35.805v-1.797h35.805v1.797zM58.185 45.423h-35.805v-1.795h35.805v1.795zM58.185 40.148h-35.805v-1.796h35.805v1.796z"/></g><path fill-rule="evenodd" clip-rule="evenodd" d="M22.381 49.048h20.202v3.877h-20.202v-3.877z"/></g></svg>