<svg xmlns="http://www.w3.org/2000/svg" xmlns:xlink="http://www.w3.org/1999/xlink" version="1.1" id="Layer_1" x="0px" y="0px" width="100px" height="100px" viewBox="0 0 100 100" enable-background="new 0 0 100 100" xml:space="preserve"> <path d="M68.476,23.647c0.045-2.018-0.697-3.932-2.094-5.39c-1.395-1.458-3.275-2.287-5.292-2.331l-0.169-0.002  c-4.074,0-7.461,3.315-7.551,7.389c-0.046,2.018,0.698,3.933,2.094,5.391c0.928,0.97,2.082,1.63,3.336,1.997l-0.027,37.6  c0,6.326-5.147,11.475-11.475,11.475s-11.475-5.148-11.475-11.475c0-0.842,0.093-1.672,0.272-2.48l4.394-0.023l-3.697-9.264  c-3.349,2.992-5.269,7.281-5.269,11.768c0,8.697,7.077,15.775,15.775,15.775s15.775-7.078,15.775-15.775l-0.027-37.611  C66.106,29.773,68.401,26.981,68.476,23.647z M60.924,26.789l-0.076-0.001c-0.884-0.02-1.708-0.382-2.318-1.021  c-0.608-0.637-0.935-1.476-0.915-2.359c0.039-1.785,1.521-3.236,3.38-3.236h0.001c0.884,0.02,1.707,0.382,2.318,1.021  c0.609,0.639,0.937,1.477,0.916,2.361C64.19,25.337,62.708,26.789,60.924,26.789z"/> </svg>