<svg xmlns="http://www.w3.org/2000/svg" width="100" height="100" viewBox="0 0 100 100"><path d="M68.476 23.647c.045-2.018-.697-3.932-2.094-5.39-1.395-1.458-3.275-2.287-5.292-2.331l-.169-.002c-4.074 0-7.461 3.315-7.551 7.389-.046 2.018.698 3.933 2.094 5.391.928.97 2.082 1.63 3.336 1.997l-.027 37.6c0 6.326-5.147 11.475-11.475 11.475s-11.475-5.148-11.475-11.475c0-.842.093-1.672.272-2.48l4.394-.023-3.697-9.264c-3.349 2.992-5.269 7.281-5.269 11.768 0 8.697 7.077 15.775 15.775 15.775s15.775-7.078 15.775-15.775l-.027-37.611c3.06-.918 5.355-3.71 5.43-7.044zm-7.552 3.142l-.076-.001c-.884-.02-1.708-.382-2.318-1.021-.608-.637-.935-1.476-.915-2.359.039-1.785 1.521-3.236 3.38-3.236h.001c.884.02 1.707.382 2.318 1.021.609.639.937 1.477.916 2.361-.04 1.783-1.522 3.235-3.306 3.235z"/></svg>