<svg xmlns="http://www.w3.org/2000/svg" xmlns:xlink="http://www.w3.org/1999/xlink" version="1.1" x="0px" y="0px" viewBox="0 0 100 100" enable-background="new 0 0 100 100" xml:space="preserve">
    <g>
        <path d="M94.272,87.562H6.029c-0.552,0-1-0.447-1-1V13.617c0-0.552,0.448-1,1-1h88.243c0.553,0,1,0.448,1,1v72.944   C95.272,87.114,94.825,87.562,94.272,87.562z M7.029,85.562h86.243V14.617H7.029V85.562z" />
    </g>
    <g>
        <path d="M14.442,83.562c-2.985,0-5.413-2.429-5.413-5.413s2.428-5.412,5.413-5.412s5.413,2.428,5.413,5.412   S17.427,83.562,14.442,83.562z M14.442,74.736c-1.882,0-3.413,1.53-3.413,3.412s1.531,3.413,3.413,3.413s3.413-1.531,3.413-3.413   S16.324,74.736,14.442,74.736z" />
    </g>
    <g>
        <path d="M85.859,83.562c-2.984,0-5.412-2.429-5.412-5.413s2.428-5.412,5.412-5.412s5.413,2.428,5.413,5.412   S88.844,83.562,85.859,83.562z M85.859,74.736c-1.882,0-3.412,1.53-3.412,3.412s1.53,3.413,3.412,3.413s3.413-1.531,3.413-3.413   S87.741,74.736,85.859,74.736z" />
    </g>
    <g>
        <path d="M81.447,62.5H66.75c-0.553,0-1-0.447-1-1V52c0-0.553,0.447-1,1-1h4.187c0.553,0,1,0.447,1,1s-0.447,1-1,1H67.75v7.5h13.697   c0.553,0,1,0.447,1,1S82,62.5,81.447,62.5z" />
    </g>
    <path d="M79.145,27.069h-58.29c-2.206,0-4,1.794-4,4V69.11c0,2.206,1.794,4,4,4h58.289c2.206,0,4-1.794,4-4V31.069  C83.145,28.863,81.351,27.069,79.145,27.069z M81.145,69.11c0,1.103-0.897,2-2,2h-58.29c-1.103,0-2-0.897-2-2V62.5h5.895  c0.552,0,1-0.447,1-1V42.755l9.483-7l9.265,7.232V61.5c0,0.553,0.448,1,1,1h16.044c0.553,0,1-0.447,1-1V52  c0-0.543-0.433-0.986-0.976-1l-4.422-0.107c-0.573,0-1.117-0.219-1.532-0.615c-0.428-0.41-0.67-0.961-0.683-1.554  s0.205-1.154,0.615-1.583c0.279-0.292,0.635-0.501,1.028-0.606c0.313-0.083,0.567-0.313,0.681-0.617  c0.113-0.304,0.071-0.645-0.111-0.913c-0.587-0.86-0.49-2.03,0.229-2.782c0.711-0.742,1.864-0.894,2.744-0.366  c0.278,0.167,0.618,0.189,0.913,0.06c0.296-0.128,0.512-0.392,0.579-0.708c0.086-0.399,0.28-0.766,0.563-1.062  c0.409-0.428,0.961-0.67,1.548-0.683c0.551-0.018,1.161,0.208,1.587,0.616c0.317,0.304,0.535,0.688,0.63,1.11  c0.069,0.312,0.283,0.571,0.575,0.699c0.293,0.127,0.629,0.109,0.903-0.052c0.852-0.497,1.941-0.368,2.651,0.312  c0.428,0.41,0.67,0.961,0.683,1.553c0.01,0.47-0.127,0.923-0.397,1.31c-0.203,0.292-0.236,0.668-0.088,0.991s0.456,0.542,0.81,0.577  c0.51,0.05,0.969,0.259,1.327,0.602c0.428,0.41,0.671,0.962,0.684,1.554s-0.206,1.154-0.615,1.581  c-0.41,0.428-0.962,0.671-1.541,0.684l0.03,2c1.125-0.024,2.174-0.485,2.954-1.3c0.78-0.813,1.196-1.881,1.172-3.008  s-0.486-2.176-1.301-2.956c-0.355-0.34-0.76-0.611-1.202-0.806c0.12-0.409,0.177-0.836,0.168-1.272  c-0.024-1.126-0.486-2.175-1.3-2.955c-1.064-1.021-2.58-1.388-3.968-1.035c-0.207-0.38-0.473-0.729-0.792-1.034  c-0.808-0.774-1.879-1.193-3.009-1.171c-1.127,0.025-2.176,0.486-2.953,1.299c-0.265,0.275-0.488,0.583-0.667,0.916  c-1.455-0.393-3.039,0.02-4.133,1.16c-1.089,1.138-1.428,2.778-0.96,4.225c-0.317,0.191-0.609,0.424-0.868,0.693  c-0.778,0.814-1.194,1.882-1.17,3.008c0.024,1.126,0.486,2.176,1.3,2.955c0.788,0.755,1.823,1.171,2.89,1.171h0.001l3.422,0.083  V60.5H46.498v-18c0-0.308-0.142-0.599-0.385-0.788l-10.248-8c-0.353-0.276-0.848-0.282-1.209-0.017l-10.5,7.75  c-0.255,0.188-0.406,0.487-0.406,0.805V60.5h-4.895V31.069c0-1.103,0.897-2,2-2h58.289c1.103,0,2,0.897,2,2L81.145,69.11  L81.145,69.11z" />
</svg>