<?xml version="1.0" standalone="no"?>
<!DOCTYPE svg PUBLIC "-//W3C//DTD SVG 20010904//EN"
 "http://www.w3.org/TR/2001/REC-SVG-20010904/DTD/svg10.dtd">
<svg version="1.0" xmlns="http://www.w3.org/2000/svg"
 width="997.000000pt" height="997.000000pt" viewBox="0 0 997.000000 997.000000"
 preserveAspectRatio="xMidYMid meet">
<metadata>
Created by potrace 1.15, written by Peter Selinger 2001-2017
</metadata>
<g transform="translate(213.5000000,997.000000) scale(0.100000,-0.100000)"
fill="#FFF" stroke="none">
<path d="M1772 9929 c-289 -38 -572 -253 -704 -535 -61 -128 -77 -212 -93
-464 -20 -303 -29 -398 -56 -536 l-10 -51 -67 -28 c-165 -69 -291 -153 -412
-275 -183 -183 -293 -385 -351 -642 -20 -92 -20 -106 -22 -2393 l-2 -2300 24
-105 c42 -187 94 -308 199 -466 130 -194 365 -382 576 -460 28 -10 51 -26 56
-38 22 -52 45 -257 65 -571 19 -305 55 -433 166 -596 114 -169 308 -316 495
-374 140 -44 160 -45 1202 -45 659 0 1017 4 1065 11 206 31 390 124 534 271
84 84 111 120 157 203 77 140 111 270 120 460 13 276 50 611 71 645 3 5 57 33
120 64 154 74 251 142 365 256 174 173 279 364 342 619 21 86 21 89 25 2096 2
1106 0 2168 -5 2360 -10 349 -10 350 -40 455 -40 133 -125 306 -202 409 -119
157 -309 312 -476 386 -121 54 -127 58 -135 88 -23 84 -41 261 -68 662 -18
251 -83 413 -237 591 -60 69 -169 155 -257 203 -32 18 -106 49 -165 69 l-107
37 -1055 1 c-580 1 -1084 -2 -1118 -7z m2146 -363 c161 -55 284 -147 355 -267
61 -104 77 -171 87 -369 15 -269 25 -380 46 -493 l6 -27 -1555 2 c-856 2
-1558 6 -1562 9 -3 4 1 64 10 135 9 71 20 215 25 320 14 298 45 389 177 526
75 76 141 119 238 154 73 26 234 30 1226 32 l875 2 72 -24z m655 -1541 c324
-73 570 -303 673 -630 l29 -90 0 -2305 c0 -2572 7 -2330 -69 -2508 -47 -113
-97 -185 -200 -287 -131 -129 -283 -210 -456 -241 -111 -20 -3263 -20 -3395 0
-354 53 -663 357 -724 711 -10 53 -12 613 -9 2365 l3 2295 23 70 c100 299 321
518 613 606 70 22 98 23 474 30 220 3 978 5 1685 3 1118 -3 1294 -5 1353 -19z
m-169 -6446 c3 -3 -1 -42 -8 -86 -8 -44 -20 -181 -26 -304 -13 -257 -30 -359
-70 -441 -67 -135 -144 -212 -275 -278 -67 -34 -95 -42 -175 -50 -54 -5 -499
-10 -1030 -9 -992 0 -1029 1 -1133 47 -142 63 -265 196 -317 344 -23 65 -40
198 -40 313 0 69 -10 185 -36 418 l-7 58 1556 -3 c855 -2 1558 -6 1561 -9z"/>
<path d="M2507 6392 c-9 -10 -27 -42 -40 -73 -22 -48 -246 -714 -373 -1107
-25 -79 -50 -140 -54 -135 -4 4 -65 98 -136 208 -153 239 -167 255 -224 255
-22 0 -53 -6 -68 -14 -26 -13 -92 -112 -197 -297 l-44 -76 -148 -5 c-88 -4
-159 -11 -176 -19 -44 -20 -67 -67 -67 -138 0 -56 3 -65 34 -99 l34 -37 230 0
c273 0 259 -5 338 128 27 48 53 89 57 93 3 3 76 -101 162 -232 87 -132 169
-251 183 -266 21 -23 34 -28 75 -28 61 0 82 11 106 58 10 20 101 286 202 590
101 303 185 552 189 552 5 0 209 -543 421 -1120 287 -785 366 -984 402 -1023
25 -27 32 -29 79 -25 41 4 57 11 78 35 20 22 80 189 250 699 257 772 230 694
239 694 4 0 20 -27 36 -60 46 -96 43 -95 312 -95 l232 0 30 30 c58 55 63 160
11 218 -25 28 -33 31 -126 38 -54 4 -128 8 -164 9 l-66 0 -28 58 c-99 204
-191 364 -217 378 -58 29 -136 9 -163 -44 -7 -15 -107 -310 -221 -657 -114
-346 -210 -634 -215 -638 -8 -9 -39 72 -332 868 -168 457 -354 956 -430 1153
-48 122 -68 142 -143 142 -37 0 -56 -5 -68 -18z"/>
</g>
</svg>
