<svg xmlns="http://www.w3.org/2000/svg" width="100" height="100" viewBox="0 0 100 100" fill="#fff"><path d="M86.341 51.201c-1.341-18.201-13.646-49.7-36.626-49.7-21.065 0-35.464 31.513-36.627 49.699-.187 2.913-.202 5.646-.094 8.241l8.977-17.04 9.191 17.938 9.353-18.374 9.367 18.274 9.341-18.1 9.489 18.262 9.366-18.024 8.42 16.431c.076-2.412.04-4.936-.157-7.607zm-55.167-7.541c-1.611 0-2.917-1.306-2.917-2.917 0-1.61 1.306-2.917 2.917-2.917 1.611 0 2.917 1.307 2.917 2.917 0 1.611-1.306 2.917-2.917 2.917zm18.666 0c-1.611 0-2.917-1.306-2.917-2.917 0-1.61 1.306-2.917 2.917-2.917s2.917 1.307 2.917 2.917c.001 1.611-1.306 2.917-2.917 2.917zm18.826 0c-1.61 0-2.916-1.306-2.916-2.917 0-1.61 1.306-2.917 2.916-2.917 1.611 0 2.918 1.307 2.918 2.917 0 1.611-1.307 2.917-2.918 2.917zM68.712 69.348l-9.478-18.238-9.366 18.15-9.34-18.226-9.354 18.375-9.256-18.062-8.188 15.542c3.964 24.111 21.745 31.89 35.985 31.89 13.895 0 32.139-8.555 36.062-32.331l-7.727-15.076-9.338 17.976zm-46.712 3.902c-1.61 0-2.916-1.305-2.916-2.916s1.306-2.918 2.916-2.918c1.611 0 2.918 1.307 2.918 2.918s-1.307 2.916-2.918 2.916zm18.5 0c-1.61 0-2.916-1.305-2.916-2.916s1.306-2.918 2.916-2.918c1.611 0 2.918 1.307 2.918 2.918s-1.307 2.916-2.918 2.916zm18.833 0c-1.61 0-2.916-1.305-2.916-2.916s1.306-2.918 2.916-2.918c1.611 0 2.918 1.307 2.918 2.918s-1.307 2.916-2.918 2.916zm21.584-2.916c0 1.611-1.307 2.916-2.918 2.916-1.61 0-2.916-1.305-2.916-2.916s1.306-2.918 2.916-2.918c1.611 0 2.918 1.307 2.918 2.918z"/></svg>