<svg version="1" xmlns="http://www.w3.org/2000/svg" width="100" height="76.434" viewBox="0 0 100 76.434"><path fill="#fff" d="M98.574 67.99c-2.116-10.919-31.236-9.758-38.254-18.31-1.48-1.805-1.48-1.805-.488-8.507 1.694-7.502 3.229-2.846 5.651-17.809 2.034-12.566-2.306-23.364-15.483-23.364s-17.517 10.798-15.483 23.364c2.422 14.963 3.956 10.307 5.651 17.809.992 6.702.992 6.702-.488 8.507-7.018 8.552-36.138 7.391-38.254 18.31-.251 1.292-1.426 8.444-1.426 8.444h100s-1.175-7.152-1.426-8.444z"/></svg>