<svg xmlns="http://www.w3.org/2000/svg" xmlns:xlink="http://www.w3.org/1999/xlink" version="1.1" x="0px" y="0px" viewBox="0 0 24 24" style="enable-background:new 0 0 24 24;" xml:space="preserve">
    <g>
        <path d="M5.893,24c-1.388,0-2.795-0.149-4.2-0.455c-0.618-0.135-1.104-0.621-1.238-1.237C-0.92,15.979,0.866,9.596,5.231,5.231l0,0   l0,0c4.365-4.365,10.748-6.149,17.077-4.776c0.616,0.134,1.103,0.62,1.237,1.237c1.375,6.328-0.41,12.712-4.775,17.078   C15.373,22.165,10.755,24,5.893,24z M18.107,1C13.507,1,9.144,2.732,5.938,5.938l0,0C1.814,10.061,0.13,16.102,1.433,22.095   c0.05,0.232,0.24,0.423,0.473,0.474c5.993,1.301,12.034-0.382,16.157-4.506S23.87,7.898,22.568,1.905   c-0.051-0.232-0.241-0.422-0.474-0.472C20.761,1.143,19.425,1,18.107,1z M5.584,5.584h0.01H5.584z" />
        <rect x="0.314" y="19.934" transform="matrix(0.7071 -0.7071 0.7071 0.7071 -13.4041 8.5069)" width="6.505" height="1" />
        <rect x="17.181" y="3.067" transform="matrix(0.7071 -0.7071 0.7071 0.7071 3.4629 15.4934)" width="6.505" height="1" />
        <rect x="7.965" y="13.035" transform="matrix(0.7072 -0.7071 0.7071 0.7072 -8.5058 10.5345)" width="1" height="5.001" />
        <rect x="15.036" y="5.964" transform="matrix(0.7071 -0.7072 0.7072 0.7071 -1.4347 13.4658)" width="1" height="5.001" />
        <rect x="12.679" y="8.321" transform="matrix(0.7071 -0.7071 0.7071 0.7071 -3.7921 12.4881)" width="1" height="5" />
        <rect x="10.322" y="10.678" transform="matrix(0.7071 -0.7071 0.7071 0.7071 -6.149 11.5119)" width="1" height="5" />
        <rect x="6.5" y="11.5" transform="matrix(0.7071 -0.7071 0.7071 0.7071 -4.9705 11.9998)" width="11" height="1" />
    </g><text x="0" y="39" fill="#000000" font-size="5px" font-weight="bold" font-family="'Helvetica Neue', Helvetica, Arial-Unicode, Arial, Sans-serif">Created by ✦ Shmidt Sergey ✦</text><text x="0" y="44" fill="#000000" font-size="5px" font-weight="bold" font-family="'Helvetica Neue', Helvetica, Arial-Unicode, Arial, Sans-serif">from the Noun Project</text>
</svg>