<svg xmlns="http://www.w3.org/2000/svg" width="100" height="100" fill="#fff" viewBox="0 0 100 100"><g><path d="M21.207 39.091v.511c.395.278 1.323.186 1.161-.511-.221-.187-.952-.187-1.161 0zM82.124 64.929c.012-.371.186-.545.104-.998.674-.487.615-1.068.882-2.078.396-1.485 2.183-4.016.662-5.153-.558.511-.162.917-.441 1.428-.452.848-1.694.952-2.193 1.648-.546.766-.72 2.159-.325 2.855-.801.894-1.288 2.274-.558 3.609 1.011-.046 1.312-.812 1.869-1.311zM92.037 33.937c-2.287-5.989-5.804-11.372-10.261-15.812-8.045-8.016-19.106-13.002-31.34-13.123l-.43-.006c-8.091 0-15.671 2.147-22.229 5.873-9.542 5.438-16.901 14.257-20.441 24.832-1.497 4.457-2.321 9.228-2.333 14.185v.115c0 2.658.244 5.271.685 7.812.615 3.517 1.637 6.883 3.019 10.075 6.87 15.822 22.553 26.919 40.857 27.105l.441.011c8.067 0 15.624-2.136 22.171-5.85 13.627-7.73 22.82-22.368 22.82-39.153.001-5.664-1.056-11.073-2.959-16.064zm-28.276 51.885c-.673-.081-.882-.429-1.474-.104.022-.58-1.011-.104-1.057-.638-1.672.221-3.238.395-4.504 1.056-.464.244-.801.743-1.266.848-.312.058-.754-.15-1.056-.104-.929.116-2.473 1.393-3.563 1.579-.499.069-1.01-.07-1.591 0l-.418.162c-3.354-.104-6.593-.627-9.669-1.532.081-.128.174-.255.116-.534-1.66-.998-2.832-2.483-4.411-3.575-.034-.801.639-.894 1.266-1.044-.418-.999-2.612-.569-2.519.835.022.477.359.441.417 1.057-.476-.221-.545-.859-1.16-.94.29-.197.243-.72-.209-.743-.487-.093-.197.581-.418.743-.522 0-.511-.116-.94 0 .047.65.905.871 1.358.522.221.371.221.569 0 .952.395.58 1.369.522 1.996.406.209.034-.022-.29-.104-.313.221-.278.465.302.522.534-.313.139-.639.209-.951.243-1.104-.499-2.171-1.045-3.216-1.637-.116-.255-.395-.359-.708-.418-.221-.116-.43-.255-.639-.383v-.012l-.034-.012c-2.821-1.764-5.387-3.877-7.661-6.291-.07-.14-.175-.255-.302-.313-6.338-6.883-10.203-16.076-10.203-26.164 0-3.842.557-7.544 1.602-11.05.15.441.128 1.057.487 1.288.639-.383-.081-1.462-.186-2.217l.023-.081c.243.673.812 1.276.998 1.984.104.406-.14.686-.104 1.045.128 1.254 1.103 1.394 2.205 2.217.522.128.441-.324.836-.312.302 1.404 2.356 1.079 2.426 2.716.209.348.697.418.72.951.558-.104.499.406 1.161.43.197-.162.023-.685.418-.639.534.453.568 1.405.522 2.415-.384.963-1.684 2.345-.731 3.366-.812.836.046 2.193.731 2.519.406 1.532 1.01 2.844 1.892 3.877.883.186 1.23.882 1.684 1.475.012 2.229.302 4.155.522 6.094.139 1.057-.244 2.112-.197 3.146.058 1.428 1.114 2.356.939 3.889-.174.012-.406-.047-.418.104-.174.639.406.499.522.848.453 1.497.767 3.146 2.206 3.668.325.046.081-.488.325-.511.104-.279.034.894-.313.836.452.661 1.856 1.032 2.728.73-.929-.673-1.788-1.428-2.311-2.519.303-.464.569-.975.836-1.463-.058-.511-.592-.522-.836-.847-.093-.441.465-.232.627-.418-.162-.151-.093-.534-.104-.848.128-.14.511-.035.522-.313.047-.522-.836-.14-.731-.731.268.093.558.14.94.104.174-.359 0-.696 0-1.044 1.556.533 2.438-.639 1.684-1.788.302.012.685-.058.847.104 1.23-.72 1.637-2.275 2.52-3.366.034-.487-.197-.72-.104-1.254.395-.649 1.242-.847 1.775-1.369.477-.047.895.15 1.266 0 .963-.384 1.358-3.354 1.161-5.038.395-.313 2.414-2.391 1.984-3.575-.464-1.3-3.319-2.635-5.246-2.414-.488-1.126-1.765-.976-2.729-1.475-.359-1.88-1.138-3.343-3.575-3.146-.476-1.045-1.961-1.463-2.101-2.519-.674-.081-1.138.047-1.358.418-.395-.256-.592-.14-1.16-.104-.187-.383-.593-.522-.731-.94-.487 0-.441.349-.639-.116-.87.395-1.741.778-1.996 1.787-.384-.197-1.23-.464-1.881 0-1.126-.916.696-4.085-1.996-3.261.197-.871.568-1.591.73-2.508-.127-.093-.255-.139-.359-.186.302-.383.801-.557 1.556-.487 0-1.451-1.567-1.475-2.705-1.149-.186-.337-.627-.731-1.149-1.079.256-.418.604-.731 1.08-.883.511-.046.522.395.952.418.278-.104.348-.43.312-.847h1.579c.093.882.278 1.694.627 2.31 1.184-1.045-.163-2.855.627-4.086.58-.894 1.671-.894 1.996-1.996.059-.349-.069-.488-.104-.731.627-.395.812-1.23 1.161-1.904.673-.231.858-.951 1.566-1.148l-.209-.627c.302-.674 1.22-.755 1.684-1.254.14.162-.093.615.209.836.673-.476 1.567-.743 2.205-1.266.093-.464-.186-.58-.522-.627.012-.302.441-.186.418-.521-.069-.372-.801-.116-1.044-.313.081-.932.975-.418 1.566-.836.104-.525-.661-.183-.836-.427.65-.36 1.8-.232 1.893-1.161.94-.139 1.428-.736 1.671-1.572-.046-.54-.812-.36-.73-1.051-.384.035-.686-.018-.94-.099-.244-1.021-.511-2.014-.848-2.948-.302.041-.487.191-.639.383l-.058-.035c-.104.14-.349.094-.546-.028 2.275-1.358 4.701-2.49 7.255-3.366.116.15.244.296.499.319-.197.435-.209.615.104.939.43.082.604-.099.952-.099.209.14.267.436.522.522.801-.493 1.903-1.213 1.578-2.205.256-.128.396-.383.511-.662 2.717-.604 5.525-.923 8.416-.923 4.353 0 8.531.731 12.443 2.061-.349 1.01.069 2.728.998 2.885.72.122.894-.447 1.684-.627.162.737.627 1.189 1.044 1.678.023.517-.777.203-.626.841.209.645 1.647.662 2.101.418.128-.923.081-2.014.848-2.31v-.238c.731.4 1.439.824 2.136 1.271.116.342.476.568.487 1.073-.499.029-.325-.598-.848-.528-.685.215-.499 1.312-.836 1.893-1.265-.465-2.402.54-3.459-.424.325-.708-.464-.667-.742-1.051.278-.754.313-1.103 0-1.886-1.405.075-1.219 1.59-.731 2.519-.465.041-1.23.012-1.788.215-.359.412-.418 1.126-1.265 1.051-.325-.29.359-.522 0-.848-.151-.203-.534-.156-.731-.313-.023-.72-.43-1.045-.952-1.265.081-.39.14-.743-.418-.731-.069-.447.337-.424.313-.842-.069-.267-.336-.365-.731-.313-.093-.296.151-.272.104-.522-.174-.18-.615-.087-.951-.11-.499.308-.418 1.185-.836 1.579-.047.331.511.034.418.418.069.418-.499.133-.522 0-.685.272-.859.853-1.684.736.094.401.14.848.104 1.364.268.267.743.313.94.633.627-.128 1.08-.389 1.37-.848v-.94c.255-.093.464-.249.848-.209l.208.726c-.255-.006-.511-.012-.626.11-.082.395.174.447.104.842-.268-.018-.511-.018-.627.11.022.272.243.371.627.313-.047.436-.5.481-.627.836.731.249 1.973.093 2.623-.104-.209.522.337.278.313.627-1.033-.528-1.068.423-2.31.214-.151.134-.104.453-.104.737.928.482 2.298 1.033 1.671 2.72-1.474.243-3.122-.812-3.981.115.615 1.277-.139 2.543.104 3.784.627.163 1.532.059 1.881.511-.313.291-.627.569-.627 1.161-1.544.349-1.335 2.461-2.31 3.366-1.893.708-2.392 2.798-3.471 4.295.905.917.476 2.972-.104 3.9.162.359.44.604.313 1.253.312.5.858.755 1.369 1.057.731 1.66 1.556 3.784 3.354 3.981.79.093 1.196-.592 1.893-.627.673-.023.87.476 1.578.522 1.08-.29 2.066-1.23 3.157-1.045.905.162 1.532 1.741 2.624.94.383.731.231 2.205-.116 2.832.406 1.358 1.428 2.09 1.683 3.575 1.985 1.404-.29 3.506-.104 5.363.093.928.929 1.625 1.057 2.623.232 1.95.824 3.378 1.787 4.828.012.303-.359.209-.209.627.406 1.637 2.136-.081 3.146.313 1.01-.638 2.182-1.103 2.519-2.414 1.347-.511 1.416-2.299 2.101-3.471h.522c.383-.558.418-1.741 0-2.299.477-.998 1.382-1.566 2.206-2.205.046-1.323.557-2.136.209-3.157-.163-.487-.778-.731-.836-1.161-.256-1.659 1.927-2.089 2.101-3.877.278-.069.395-.302.627-.418.337-1.845 1.637-3.272 1.475-5.258-.79.383-1.765.477-2.52.639-.278-.337.186-.592.313-.848-.858-1.312-2.611-2.739-2.31-4.515-.696-.917-1.475-2.311-1.579-3.46.65-.139.859 1.011 1.057 1.672.093.43.557.499.731.848l1.671 4.411c.418.324.36 1.114.952 1.253.418.07.302-.395.313-.731 1.126-.766 2.496-1.276 3.459-2.205 0-.777.487-.859.43-1.475-.069-.673-.952-.917-.952-1.671.546.046.917.267 1.416.371 1.138 3.634 1.741 7.487 1.741 11.479 0 15.59-9.251 29.031-22.554 35.125-1.007-.046-1.843.047-2.33.696zm-34.765-61.961c-.29-.093.093-.369.093-.525.406.053.522-.191.952-.104-.059.501-.767.354-1.045.629zm.523 1.254c.243.034.43.127.627.22-.094.221-.767.14-.627-.22zm-5.364-1.779c-.359-.558-.127-1.271 0-1.892.012-.07-.023-.094-.069-.104.661-.599 1.347-1.161 2.043-1.719-.128.993-.894 1.353-1.451 1.928.267.574.313 1.74-.523 1.787zm-.836 3.996c-.452-.406-.557.221-.626.522-.104-.313-.256-.592-.325-.952.325.151.383-.046.847 0l.104.43zm-2.309-.952c.151-.197.441-.255.522-.522.337.093.546.29.522.731-.36-.081-.395.163-.731.104.116-.325.105-.337-.313-.313zm-.314.43c-.186-.081-.012-.197 0-.325.186.08.012.185 0 .325zm-2.449 11.63l.128.522c-.36-.023-.696-.012-.639.383.232.615.848.325 1.3.569-.812.104-.685 1.973-2.02 1.706-.104-.313-.197-.662-.255-1.01.116-.023.267-.047.464-.104-.116-.65-.371-.812-.592-.755-.023-.302-.012-.615.012-.917.697.036 1.08-.254 1.602-.394zm6.547 6.628c-.012-.255.162-.313.209-.522.383.081.128.569-.209.522zm60.383-7.765c-.336.511-.464 1.207-1.369 1.161-.232-.29-.302-.755-.313-1.266-.197-.197-.384-.034-.627 0-.174-.673-.604-1.079-.639-1.892 1.138.313.894 1.973 2.008 2.31.452.035.534-.302.94-.313zm-2.844-8.474l.012.07.256.348.115.197c.256.395.453.836.465 1.451-1.591.069-2.206-1.161-1.672-2.623-.673-.674-1.3-1.684-1.566-2.693.846 1.033 1.647 2.124 2.39 3.25zm-11.225 4.794c-1.66-.58-2.6-1.88-4.202-2.519.244-.859-.487-1.01-.209-1.579-.313-.116-.615-.22-.847-.418-.313.035-.465.232-.731.325-1.312-.162-2.473-.278-3.68 0-1.126.244-2.264 1.149-3.354.209 1.357-.081 2.321-.43 3.041-1.16-.232-1.776 1.335-1.753 1.578-3.053.999.371 1.765.104 2.52-.313.848 1.323 2.763 1.578 3.146 3.366-.546.093-1.021.267-1.567-.104-.197.615.488 1.172.836 1.578.325.081.383-.116.627-.104.047-.371-.035-.592-.104-.848.313 0 .534.313.743.116.058-.324.29-.487.627-.533.069-.384-.232-.406-.209-.731.348 0 .511.499.835.209.035-.94-.998-.824-1.148-1.579.627-.186.824.081 1.253.325.256 1.729.895 3.088 2.311 3.668.174.081.174-.487 0-.418.104-.325.29.116.418.104.255.035-.059-.476.324-.313-.267-.836-.429-1.138-.429-2.205.824 0 .754 1.276.742 1.787.488.674 1.208 1.625 2.415 1.254.371-.023.336.359.627.418.452 0 .673-.244 1.16-.209-.116.998-.023 1.787-.209 2.832-2.055-.162-4.062-.325-5.142-1.671-.313.312-1.207.058-1.475.406-.082.511.162.684.103 1.16zm-9.982-13.02c.325-.151.15.609-.104.522-.047-.25.185-.227.104-.522zm13.546 6.729c-.197-.256-.359-.546-.627-.743.337-.534.558-1.184.94-1.683.499-.035.476.429 1.057.313-.128.312-.035.359.093.638.464-.231.94.012 1.381.104.082-.406-.231-.406-.429-.533.162-.209.742-.023.951-.209-.034.243.023.406.209.429.012.221-.371.047-.522.093.07.221.197.372.337.522-.151.012-.302.035-.441.104-.058.755.372.999.778 1.277.255-.209.708-.221.963-.441.268.209.477.465.558.859-1.882.047-2.961-1.369-5.248-.73z"/></g></svg>