<svg xmlns="http://www.w3.org/2000/svg" width="100" height="100" viewBox="0 0 100 100"><path fill="#fff" d="M26.66 13.266v63.563c-3.223-.916-7.149-.712-10.972.888-7.287 3.048-11.342 9.901-9.047 15.301 2.287 5.407 10.054 7.317 17.34 4.271 6.094-2.547 9.865-7.749 9.617-12.548h.068v-47.558l45.044-7.065v35.386c-3.174-.827-7.01-.579-10.729.976-7.282 3.047-11.338 9.901-9.047 15.305 2.292 5.406 10.059 7.318 17.344 4.268 5.815-2.433 9.502-7.283 9.618-11.894h.068v-71.159l-59.304 10.266zm52.051 6.065l-45.044 7.799v-5.022l45.044-7.063v4.286z"/></svg>