<svg xmlns="http://www.w3.org/2000/svg" width="100" height="100" viewBox="5.0 -10.0 100.0 135.0"><path d="M99.337 89.242l-31.285-31.286c4.063-6.057 6.246-13.179 6.246-20.636 0-9.923-3.864-19.252-10.881-26.269-7.017-7.016-16.345-10.88-26.268-10.88-9.923 0-19.252 3.864-26.269 10.88-7.016 7.017-10.88 16.346-10.88 26.269s3.864 19.251 10.881 26.268 16.345 10.881 26.269 10.881c7.541 0 14.737-2.234 20.838-6.385l31.255 31.253c1.055 1.056 2.995.826 4.332-.511l5.252-5.252c1.337-1.337 1.566-3.277.51-4.332zm-62.188-24.837c-14.936 0-27.086-12.15-27.086-27.085s12.151-27.086 27.086-27.086c14.935 0 27.085 12.151 27.085 27.086s-12.15 27.085-27.085 27.085z"/></svg>