<svg xmlns="http://www.w3.org/2000/svg" xmlns:xlink="http://www.w3.org/1999/xlink" version="1.1" id="Layer_1" x="0px" y="0px" width="100px" height="100px" viewBox="0 0 100 100" enable-background="new 0 0 100 100" xml:space="preserve"> <path d="M13.105,10.982c0-1.104,0.896-2,2-2s2,0.896,2,2v45.871c0,1.104-0.896,2-2,2  s-2-0.896-2-2V10.982L13.105,10.982z M13.105,71.854c0-1.104,0.896-2,2-2s2,0.896,2,2v17.163c0,1.104-0.896,2.001-2,2.001  s-2-0.896-2-2.001V71.854z"/> <path d="M48,10.982c0-1.104,0.896-2,2-2s2,0.896,2,2v17.164c0,1.104-0.896,2-2,2  s-2-0.896-2-2V10.982L48,10.982z M48,43.146c0-1.104,0.896-2,2-2s2,0.896,2,2v45.87c0,1.104-0.896,2.001-2,2.001s-2-0.896-2-2.001  V43.146z"/> <path d="M82.895,10.982c0-1.104,0.896-2,2-2s2,0.896,2,2V42.5c0,1.104-0.896,2-2,2  s-2-0.896-2-2V10.982L82.895,10.982z M82.895,57.5c0-1.104,0.896-2,2-2s2,0.896,2,2v31.517c0,1.104-0.896,2.001-2,2.001  s-2-0.896-2-2.001V57.5z"/> <path d="M50,26.146c2.623,0,4.998,1.063,6.718,2.782c1.719,1.72,2.782,4.095,2.782,6.718  c0,2.622-1.063,4.998-2.782,6.717c-1.72,1.72-4.095,2.783-6.718,2.783s-4.998-1.063-6.717-2.783  c-1.72-1.719-2.783-4.095-2.783-6.717c0-2.623,1.063-4.998,2.783-6.718C45.002,27.21,47.377,26.146,50,26.146L50,26.146z   M53.89,31.757c-0.995-0.995-2.37-1.61-3.89-1.61s-2.895,0.615-3.889,1.61c-0.995,0.995-1.61,2.37-1.61,3.89  c0,1.519,0.615,2.895,1.61,3.89c0.994,0.994,2.369,1.61,3.889,1.61s2.895-0.616,3.89-1.61c0.995-0.995,1.61-2.371,1.61-3.89  C55.5,34.127,54.885,32.752,53.89,31.757z"/> <path d="M15.105,54.854c2.623,0,4.998,1.063,6.717,2.783  c1.72,1.719,2.783,4.094,2.783,6.717s-1.063,4.998-2.783,6.717c-1.719,1.72-4.094,2.783-6.717,2.783s-4.998-1.063-6.717-2.783  c-1.72-1.719-2.783-4.094-2.783-6.717s1.063-4.998,2.783-6.717C10.107,55.917,12.482,54.854,15.105,54.854L15.105,54.854z   M18.995,60.464c-0.995-0.995-2.37-1.61-3.89-1.61s-2.895,0.615-3.89,1.61s-1.61,2.371-1.61,3.89c0,1.52,0.615,2.895,1.61,3.89  s2.37,1.61,3.89,1.61s2.895-0.615,3.89-1.61s1.61-2.37,1.61-3.89C20.605,62.835,19.99,61.459,18.995,60.464z"/> <path d="M84.895,40.5c2.623,0,4.998,1.063,6.718,2.782c1.719,1.72,2.782,4.095,2.782,6.718  s-1.063,4.998-2.782,6.718c-1.72,1.719-4.095,2.782-6.718,2.782c-2.622,0-4.998-1.063-6.717-2.782  c-1.72-1.72-2.783-4.095-2.783-6.718s1.063-4.998,2.783-6.718C79.896,41.563,82.272,40.5,84.895,40.5L84.895,40.5z M88.784,46.11  c-0.995-0.995-2.37-1.61-3.89-1.61c-1.519,0-2.895,0.615-3.889,1.61c-0.995,0.995-1.611,2.37-1.611,3.89s0.616,2.895,1.611,3.89  c0.994,0.995,2.37,1.61,3.889,1.61c1.52,0,2.895-0.615,3.89-1.61s1.61-2.37,1.61-3.89S89.779,47.105,88.784,46.11z"/> </svg>