<svg xmlns="http://www.w3.org/2000/svg" width="75" height="75" viewBox="0 0 75 75"><path fill="#FFF" d="M50.046 9.929h-33.192v55.247h42.546l.079-46.652-9.433-8.595zm7.337 53.385h-38.712v-51.289h30.396v8.315h8.315v42.974zm-13.207-41.366h-21.103v-1.258h21.103v1.258zm9.852 4.652h-30.955v-1.258h30.955v1.258zm-17.608 4.651h-13.347v-1.258h13.347v1.258zm17.608 4.652h-30.955v-1.258h30.955v1.258zm0 9.304h-30.955v-1.258h30.955v1.258zm0 4.651h-30.955v-1.258h30.955v1.258zm-8.245-9.303h-22.71v-1.258h22.71v1.258zm-9.538 13.956h-13.172v-1.258h13.172v1.258z"/></svg>