<svg xmlns:dc="http://purl.org/dc/elements/1.1/" xmlns:cc="http://creativecommons.org/ns#" xmlns:rdf="http://www.w3.org/1999/02/22-rdf-syntax-ns#" xmlns:svg="http://www.w3.org/2000/svg" xmlns="http://www.w3.org/2000/svg" xmlns:sodipodi="http://sodipodi.sourceforge.net/DTD/sodipodi-0.dtd" xmlns:inkscape="http://www.inkscape.org/namespaces/inkscape" version="1.1" x="0px" y="0px" viewBox="0 0 32 40"><g transform="translate(0,-1020.3622)"><g transform="translate(-0.1874839,-0.08735)"><g transform="translate(0.18336736,-0.87410704)"><path style="text-indent:0;text-transform:none;direction:ltr;block-progression:tb;baseline-shift:baseline;color:#FFFFFF;enable-background:accumulate;" d="m 29.375,3 c -0.01087,0.00995 -0.0213,0.02038 -0.03125,0.03125 l -5.3125,1.75 C 23.88485,4.836745 23.781165,4.9858648 23.6875,5.0625 L 16.125,12.59375 12.34375,8.8125 C 12.601732,7.4105 12.3038,5.92885 11.21875,4.84375 10.082524,3.71045 8.4251735,3.2721 6.875,3.6875 6.854194,3.6862 6.833306,3.6862 6.8125,3.6875 6.5046816,3.8026948 6.3987879,4.2615674 6.625,4.5 L 8.875,6.75 8.34375,8.34375 6.75,8.875 4.53125,6.625 C 4.2782499,6.3708638 3.7612178,6.5240585 3.6875,6.875 c -0.415363,1.5502 0.022915,3.20755 1.15625,4.34375 1.0783182,1.0784 2.5741415,1.3734 3.96875,1.125 l 3.78125,3.78125 -7.4375,7.4375 c -0.048631,0.03382 -0.091177,0.07637 -0.125,0.125 -0.051593,0.04298 -0.09439,0.09648 -0.125,0.15625 l -1.1875,1.1875 c -0.931736,0.9317 -0.9317792,2.4432 0,3.375 l 0.875,0.90625 c 0.9317798,0.9318 2.4745014,0.9318 3.40625,0 l 1.3125,-1.34375 c 0.03753,-0.03642 0.069293,-0.07877 0.09375,-0.125 l 7.4375,-7.46875 0.03125,0 3.78125,3.8125 c -0.257958,1.402 0.07122,2.9149 1.15625,4 1.136239,1.1333 2.793625,1.57155 4.34375,1.15625 C 26.49733,29.253471 26.629254,28.744624 26.375,28.5 L 24.15625,26.28125 24.6875,24.6875 26.28125,24.15625 28.5,26.375 c 0.244624,0.254254 0.753471,0.12233 0.84375,-0.21875 0.415299,-1.5499 -0.02087,-3.20835 -1.15625,-4.34375 -1.085034,-1.0851 -2.597949,-1.41435 -4,-1.15625 L 20.40625,16.84375 27.9375,9.3125 C 28.106743,9.1432565 28.106304,9.1014948 28.1875,9 L 29.96875,3.65625 C 30.07018,3.3491694 29.791738,2.9837146 29.46875,3 29.437592,2.9970663 29.406158,2.9970663 29.375,3 z M 28.71875,4.28125 27.5,7.9375 25.09375,5.53125 z M 8.1875,4.65625 c 0.8567495,0.04 1.6870843,0.28245 2.3125,0.90625 0.899067,0.9138 1.181652,2.18325 0.875,3.34375 -0.04519,0.1781428 0.01767,0.379284 0.15625,0.5 l 3.90625,3.90625 -2.125,2.125 -3.90625,-3.90625 C 9.285534,11.39267 9.0843928,11.329814 8.90625,11.375 7.737112,11.684 6.477597,11.415 5.5625,10.5 4.9386633,9.8746 4.696255,9.0442 4.65625,8.1875 L 6.25,9.78125 c 0.1274968,0.1277472 0.3273865,0.1777196 0.5,0.125 L 8.875,9.1875 C 9.0194671,9.1383898 9.1383898,9.0194671 9.1875,8.875 L 9.90625,6.75 C 9.95897,6.5773865 9.909,6.3774968 9.78125,6.25 z M 24.15625,6 l 1.0625,1.0625 -18,18.09375 L 6.125,24.0625 z M 25.9375,7.78125 27,8.875 8.96875,26.90625 7.9375,25.875 z m -6.25,9.78125 3.9375,3.9375 c 0.121554,0.117176 0.304991,0.166092 0.46875,0.125 1.169139,-0.309 2.459904,-0.01005 3.375,0.90625 0.616601,0.6165 0.859418,1.43545 0.90625,2.28125 L 26.75,23.21875 c -0.127497,-0.127747 -0.327386,-0.17772 -0.5,-0.125 l -2.125,0.71875 c -0.144467,0.04911 -0.26339,0.168033 -0.3125,0.3125 l -0.71875,2.125 c -0.05272,0.172614 -0.0027,0.372503 0.125,0.5 l 1.59375,1.625 C 23.966956,28.328 23.149029,28.08505 22.53125,27.46875 21.616153,26.55365 21.316059,25.26295 21.625,24.09375 21.66609,23.929991 21.6172,23.746554 21.5,23.625 L 17.5625,19.6875 z M 5.40625,24.75 6.8125,26.1875 8.25,27.625 7.28125,28.59375 c -0.5522238,0.5523 -1.4164858,0.5523 -1.96875,0 l -0.90625,-0.875 c -0.5522648,-0.5522 -0.5522364,-1.41655 0,-1.96875 z" transform="translate(0.00411654,1021.3237)" fill="#FFFFFF" fill-opacity="1" stroke="none" marker="none" visibility="visible" display="inline" overflow="visible"/></g></g></g><text x="0" y="47" fill="#FFFFFF" font-size="5px" font-weight="bold" font-family="'Helvetica Neue', Helvetica, Arial-Unicode, Arial, Sans-serif">Created by Chameleon Design</text><text x="0" y="52" fill="#FFFFFF" font-size="5px" font-weight="bold" font-family="'Helvetica Neue', Helvetica, Arial-Unicode, Arial, Sans-serif">from the Noun Project</text></svg>