<svg xmlns="http://www.w3.org/2000/svg" version="1" viewBox="0 0 24 24" enable-background="new 0 0 24 24" height="100" width="100"><path d="M17.5 2c-2.5 0-4.5 2-4.5 4.5s2 4.5 4.5 4.5 4.5-2 4.5-4.5-2-4.5-4.5-4.5zm.7 2c-1.8 0-3.2 1.4-3.2 3.2 0 .4 0 .8.2 1.2-.4-.5-.7-1.2-.7-1.9 0-1.7 1.3-3 3-3 .7 0 1.3.3 1.9.7-.4-.2-.8-.2-1.2-.2zM19.1 18.5c-.5-.5-9-8.8-10.4-9.8-2-1.3-4.6-.8-6 1.2-1.3 2-.8 4.7 1.2 6 1.5 1 12.5 5.6 13 5.9 1 .4 2.1.4 2.7-.5.6-1 .2-2-.5-2.8zm-13-4.7c-.8-.1-1.4-.8-1.3-1.6s.8-1.4 1.6-1.3c.8.1 1.4.8 1.3 1.6 0 .8-.8 1.4-1.6 1.3z"/></svg>