<svg xmlns="http://www.w3.org/2000/svg" viewBox="0 0 32 32" x="0px" y="0px"><path d="M29.75,22v2A2.752,2.752,0,0,1,27,26.75H5A2.752,2.752,0,0,1,2.25,24V22A.75.75,0,0,1,3,21.25h8.9a.75.75,0,0,1,.5.193l.892.807h5.4l.781-.78a.747.747,0,0,1,.53-.22h9A.75.75,0,0,1,29.75,22ZM5,20.75A.75.75,0,0,0,5.75,20V6.75h20.5V20a.75.75,0,0,0,1.5,0V6A.75.75,0,0,0,27,5.25H5A.75.75,0,0,0,4.25,6V20A.75.75,0,0,0,5,20.75Zm17.288-8.987-.726,2.179-1.227-.613a.75.75,0,0,0-1.006.336L18.1,16.126l-2.4-6.39a.75.75,0,0,0-1.373-.071L12.62,13.083l-2.383-.795a.752.752,0,0,0-.972.565l-1,5a.75.75,0,1,0,1.47.294l.833-4.167,2.2.732a.756.756,0,0,0,.908-.377l1.23-2.461,2.4,6.39a.75.75,0,0,0,.663.485.724.724,0,0,0,.71-.414l1.664-3.329,1.33.665a.743.743,0,0,0,.622.022.754.754,0,0,0,.425-.456l1-3a.75.75,0,1,0-1.424-.474Z"/><text x="0" y="47" fill="#000000" font-size="5px" font-weight="bold" font-family="'Helvetica Neue', Helvetica, Arial-Unicode, Arial, Sans-serif">Created by Icon Everywhere</text><text x="0" y="52" fill="#000000" font-size="5px" font-weight="bold" font-family="'Helvetica Neue', Helvetica, Arial-Unicode, Arial, Sans-serif">from the Noun Project</text></svg>