<svg xmlns:dc="http://purl.org/dc/elements/1.1/" xmlns:cc="http://creativecommons.org/ns#" xmlns:rdf="http://www.w3.org/1999/02/22-rdf-syntax-ns#" xmlns:svg="http://www.w3.org/2000/svg" xmlns="http://www.w3.org/2000/svg" xmlns:sodipodi="http://sodipodi.sourceforge.net/DTD/sodipodi-0.dtd" xmlns:inkscape="http://www.inkscape.org/namespaces/inkscape" viewBox="0 0 100 100" version="1.1" x="0px" y="0px"><g transform="translate(0,-952.36216)"><path style="opacity:1;fill:#000000;fill-opacity:1;stroke:none;stroke-width:1.5;stroke-linecap:round;stroke-linejoin:round;stroke-miterlimit:4;stroke-dasharray:none;stroke-dashoffset:0;stroke-opacity:1" d="m 49.896195,967.71552 c -12.284244,0 -23.411095,2.42308 -31.533559,6.39178 -7.47792,3.65378 -12.5013566,8.67989 -13.2521017,14.43194 -0.011866,0.10992 -0.027379,0.21938 -0.041042,0.32907 -0.039398,0.38803 -0.060197,0.77956 -0.060197,1.17382 0,0.4352 -0.03005,0.91251 0.017927,1.34007 l 0.1997974,23.6592 -0.00103,0.028 0.00103,0.01 0.00103,0.1786 0.018081,0.01 c 0.2178837,12.0367 20.2385471,21.7397 44.8669231,21.7447 24.326626,-0.01 44.214588,-9.4838 44.845858,-21.3695 l 0.02209,-0.01 -0.0031,-0.2639 c 0.0088,-0.1003 0.01613,-0.2006 0.02209,-0.301 -0.0083,-0.086 -0.01767,-0.1726 -0.0281,-0.2588 l -0.245802,-23.61481 c -0.0041,-0.38335 0.05819,-0.76627 0.05819,-1.15376 0,-6.37859 -5.231972,-11.96612 -13.354431,-15.93482 -8.122463,-3.96871 -19.249314,-6.39179 -31.533563,-6.39179 z m 0,1.54101 c 12.080784,0 23.012692,2.40231 30.857363,6.23528 7.84467,3.83297 12.489619,9.02397 12.489619,14.55032 0,5.52635 -4.644949,10.71737 -12.489619,14.55037 -7.844671,3.8329 -18.776579,6.2352 -30.857363,6.2352 -12.080779,0 -23.01168,-2.4023 -30.856356,-6.2352 -7.84467,-3.833 -12.4896194,-9.02402 -12.4896194,-14.55037 0,-5.52635 4.6449494,-10.71735 12.4896194,-14.55032 7.844676,-3.83297 18.775577,-6.23528 30.856356,-6.23528 z"/><path style="color:#000000;" d="m 49.961411,973.1823 c -8.362764,0 -15.945504,1.45559 -21.66647,3.96489 -2.860483,1.25465 -5.269778,2.77022 -7.070995,4.63809 -1.801222,1.86786 -3.012801,4.20659 -3.012801,6.765 0,2.55841 1.211579,4.89713 3.012801,6.765 1.801217,1.86787 4.210512,3.38343 7.070995,4.63809 5.720966,2.50933 13.303706,3.96493 21.66647,3.96493 8.362758,0 15.945503,-1.4556 21.666469,-3.96493 2.860478,-1.25466 5.269778,-2.77022 7.070995,-4.63809 1.801217,-1.86787 3.012796,-4.20659 3.012796,-6.765 0,-2.55841 -1.211579,-4.89714 -3.012796,-6.765 -1.801217,-1.86787 -4.210517,-3.38344 -7.070995,-4.63809 -5.720966,-2.5093 -13.303711,-3.96489 -21.666469,-3.96489 z m 0,5.1367 c 7.753946,0 14.761954,1.40924 19.602756,3.53249 2.420401,1.06162 4.284532,2.3046 5.43668,3.49938 1.152148,1.19478 1.574118,2.2233 1.574118,3.19941 0,0.97611 -0.42197,2.00462 -1.574118,3.1994 -1.152148,1.19479 -3.016279,2.43776 -5.43668,3.49938 -4.840802,2.12326 -11.84881,3.5325 -19.602756,3.5325 -7.753946,0 -14.761955,-1.40924 -19.602757,-3.5325 -2.4204,-1.06162 -4.284532,-2.30459 -5.436685,-3.49938 -1.152148,-1.19478 -1.574118,-2.22329 -1.574118,-3.1994 0,-0.97611 0.42197,-2.00463 1.574118,-3.19941 1.152153,-1.19478 3.016285,-2.43776 5.436685,-3.49938 4.840802,-2.12325 11.848811,-3.53249 19.602757,-3.53249 z"/></g></svg>