<?xml version="1.0"?>
<svg width="857.143" height="1000" xmlns="http://www.w3.org/2000/svg">
 <g>
  <title>background</title>
  <rect x="-1" y="-1" width="859.143" height="1002" id="canvas_background" fill="none"/>
 </g>

 <g>
  <title>Layer 1</title>
  <path d="m857.088013,500.032013q0,140.058014 -81.747009,251.936981t-211.203003,154.845032q-15.065979,2.789978 -22.041016,-3.906006t-6.974976,-16.73999l0,-117.738037q0,-54.125977 -29.015991,-79.235962q31.805969,-3.348022 57.195007,-10.044006t52.451965,-21.762024t45.197998,-37.106995t29.574036,-58.589966t11.438965,-83.979034q0,-67.517975 -44.08197,-114.947998q20.645996,-50.777985 -4.463989,-113.831985q-15.624023,-5.022003 -45.197998,6.138t-51.335999,24.551987l-21.204041,13.391998q-51.893982,-14.507996 -107.135986,-14.507996t-107.136017,14.507996q-8.927979,-6.138 -23.714996,-15.065979t-46.592987,-21.483002t-47.987991,-7.53299q-24.552002,63.053986 -3.906021,113.83197q-44.082016,47.430023 -44.082016,114.947998q0,47.430023 11.439011,83.700043t29.294998,58.589966t44.918991,37.385986t52.452026,21.762024t57.195007,10.044006q-22.320007,20.088013 -27.34201,57.473999q-11.717987,5.579956 -25.110016,8.369995t-31.806,2.789978t-36.548996,-11.997009t-30.969009,-34.875q-10.60199,-17.855957 -27.062988,-29.015991t-27.621002,-13.391968l-11.160004,-1.674011q-11.717995,0 -16.181999,2.510986t-2.789993,6.416992t5.021996,7.812012t7.254013,6.695984l3.906006,2.790039q12.275986,5.579956 24.272995,21.203979t17.577011,28.458008l5.580002,12.833984q7.253998,21.203979 24.552002,34.317017t37.385986,16.73999t38.780991,3.906006t30.968994,-1.952942l12.834015,-2.231995q0,21.203979 0.278992,49.661987t0.278961,30.132019q0,10.044006 -7.253998,16.73999t-22.319977,3.906006q-129.456009,-42.966003 -211.202995,-154.845032t-81.747006,-251.936981q0,-116.622009 57.474,-215.109009t155.961002,-155.960999t215.108963,-57.473999t215.109009,57.473999t155.960999,155.960999t57.473999,215.109009l0.000061,0l0,-0.000061z" id="svg_1"/>
 </g>
</svg>