<?xml version="1.0" standalone="no"?>
<!DOCTYPE svg PUBLIC "-//W3C//DTD SVG 20010904//EN"
 "http://www.w3.org/TR/2001/REC-SVG-20010904/DTD/svg10.dtd">
<svg version="1.0" xmlns="http://www.w3.org/2000/svg"
 width="512.000000pt" height="512.000000pt" viewBox="0 0 512.000000 512.000000"
 preserveAspectRatio="xMidYMid meet">
<metadata>
Created by potrace 1.11, written by Peter Selinger 2001-2013
</metadata>
<g transform="translate(0.000000,512.000000) scale(0.100000,-0.100000)"
fill="#000000" stroke="none">
<path d="M2518 4255 c-2 -1 -43 -5 -93 -8 -242 -16 -508 -99 -729 -230 -39
-23 -75 -45 -81 -50 -5 -4 -41 -31 -80 -59 -90 -66 -255 -232 -327 -328 -283
-378 -396 -842 -318 -1300 5 -30 12 -68 14 -85 12 -72 82 -269 133 -374 52
-108 146 -257 208 -332 70 -84 248 -249 330 -307 158 -111 337 -198 514 -249
91 -27 92 -27 161 -38 25 -4 54 -9 65 -11 116 -22 374 -22 490 0 11 2 40 7 65
11 230 36 513 162 723 322 91 69 273 257 341 352 113 158 202 342 257 531 11
41 23 86 25 100 3 14 9 48 14 75 28 137 30 389 5 535 -18 110 -27 150 -41 200
-89 308 -247 569 -472 781 -88 83 -204 172 -292 223 -170 100 -407 189 -565
211 -22 3 -46 8 -54 11 -20 6 -287 24 -293 19z m-323 -950 c232 -58 402 -201
513 -435 54 -114 42 -87 192 -450 132 -322 165 -385 224 -436 93 -80 264 -91
382 -23 119 68 170 208 116 320 -27 57 -87 93 -242 149 -181 66 -289 122 -352
182 -63 61 -80 86 -102 152 -17 50 -22 158 -11 231 9 60 60 158 106 204 41 40
120 85 175 99 16 4 79 7 139 7 98 0 116 -3 168 -27 65 -31 152 -109 184 -165
l22 -38 -83 -44 -83 -45 -39 44 c-50 56 -111 83 -185 82 -124 -1 -209 -87
-209 -213 0 -89 68 -165 179 -200 85 -26 283 -99 321 -119 158 -79 235 -193
244 -358 10 -205 -88 -375 -269 -462 -44 -21 -109 -44 -144 -50 -69 -12 -221
-7 -264 9 -15 6 -27 9 -27 6 0 -2 -31 12 -70 31 -89 45 -172 133 -227 240 -22
43 -93 205 -158 359 -179 428 -186 443 -225 504 -117 181 -355 278 -570 234
-257 -53 -452 -290 -461 -558 -2 -47 7 -142 16 -175 1 -3 5 -18 10 -35 19 -72
82 -172 150 -240 107 -108 235 -165 380 -169 61 -2 182 19 199 35 6 5 17 9 26
9 24 0 150 87 193 134 21 22 53 62 70 88 16 27 31 47 32 45 2 -1 19 -45 40
-97 21 -52 42 -99 46 -105 18 -19 8 -44 -33 -87 -153 -156 -328 -236 -535
-243 -91 -3 -128 1 -254 30 -8 2 -45 17 -82 33 -240 109 -407 328 -463 607
-11 54 -10 229 1 285 6 30 12 57 12 60 32 167 166 367 318 476 182 129 412
173 630 119z"/>
</g>
</svg>
