<svg version="1" xmlns="http://www.w3.org/2000/svg" width="256pt" height="256pt" viewBox="0 0 256.000000 256.000000"><path fill="#FFFFFF" d="M43.4 26.4c-2.2.7-5.4 2.1-7 3-3.6 2.2-8.7 8.9-10.2 13.5-.8 2.4-1.2 27.1-1.2 85.1 0 90.5-.2 86.9 6.5 94.7 2 2.3 5.6 5 8.6 6.2l5.1 2.2 83.2.1c80.5 0 83.2-.1 87.6-2 7.1-3.1 11.7-8.4 14.4-16.7.4-1 .7-39.2.7-84.7 0-79.1-.1-82.9-1.9-87-2.7-6.2-6.7-10.5-12.1-13.1l-4.6-2.2-82.5-.2c-63.6-.1-83.4.2-86.6 1.1zm40.3 35.2c12 5.8 12.3 23.7.4 29.8-10.9 5.7-24.1-2.4-24.1-14.7 0-12.4 12.5-20.3 23.7-15.1zm96.9 45.2c7.7 3.9 13.3 12.4 15.1 22.7.5 2.7.9 18.9.9 36l-.1 31-13.7.1c-9.8.2-13.8-.1-13.9-1 0-.6-.2-13.3-.3-28.1-.2-25.4-.3-27.2-2.3-31.1-2.6-4.9-6.1-7.4-11.1-7.9-8.6-.9-15.7 3.6-18.1 11.5-.7 2.4-1.1 13.5-1.2 30.2l-.1 26.4h-26.8v-91.2l13.3.1h13.2l.3 5.9.3 5.8 3.5-4c9-10.5 27.4-13.4 41-6.4zm-90.4-.3c0 .5.2 21 .3 45.5l.1 44.6h-13.8c-7.6.1-13.9-.2-13.9-.5-.3-1.4-.5-88.7-.2-89.6.5-1.4 27.2-1.4 27.5 0z"/></svg>