<svg version="1.0" xmlns="http://www.w3.org/2000/svg" width="256.000000pt" height="256.000000pt" viewBox="0 0 256.000000 256.000000"> <g transform="translate(0.000000,256.000000) scale(0.100000,-0.100000)" fill="#000000" stroke="none"> <path d="M434 2296 c-22 -7 -54 -21 -70 -30 -36 -22 -87 -89 -102 -135 -8 -24 -12 -271 -12 -851 0 -905 -2 -869 65 -947 20 -23 56 -50 86 -62 l51 -22 832 -1 c805 0 832 1 876 20 71 31 117 84 144 167 4 10 7 392 7 847 0 791 -1 829 -19 870 -27 62 -67 105 -121 131 l-46 22 -825 2 c-636 1 -834 -2 -866 -11z m403 -352 c120 -58 123 -237 4 -298 -109 -57 -241 24 -241 147 0 124 125 203 237 151z m969 -452 c77 -39 133 -124 151 -227 5 -27 9 -189 9 -360 l-1 -310 -137 -1 c-98 -2 -138 1 -139 10 0 6 -2 133 -3 281 -2 254 -3 272 -23 311 -26 49 -61 74 -111 79 -86 9 -157 -36 -181 -115 -7 -24 -11 -135 -12 -302 l-1 -264 -134 0 -134 0 0 456 0 456 133 -1 132 0 3 -59 3 -58 35 40 c90 105 274 134 410 64z m-904 3 c0 -5 2 -210 3 -455 l1 -446 -138 0 c-76 -1 -139 2 -139 5 -3 14 -5 887 -2 896 5 14 272 14 275 0z"/> </g> </svg>