<?xml version="1.0" encoding="utf-8"?>
<svg version="1.1" id="svg2" xmlns:svg="http://www.w3.org/2000/svg" xmlns:dc="http://purl.org/dc/elements/1.1/" xmlns="http://www.w3.org/2000/svg" xmlns:xlink="http://www.w3.org/1999/xlink" x="0px" y="0px" width="256px" height="256px" viewBox="0 0 256 256" enable-background="new 0 0 256 256" xml:space="preserve">
<g id="layer1" transform="translate(-373.642,-318.344)">
		<path id="rect1942" fill="#000000" d="M583.659,328.849H419.625c-19.599,0-35.487,15.888-35.487,35.487v164.015c0,19.599,15.888,35.486,35.487,35.486h164.033
		c19.599,0,35.487-15.888,35.487-35.486V364.337C619.146,344.738,603.257,328.849,583.659,328.849z"/>
		<path id="path1950" fill="#000000" d="M557.056,338.895H446.227c-29.337,0-52.955,23.81-52.955,53.385v108.127c0.95,23.087,4.603,8.491,11.555-17.075
		c8.081-29.713,34.396-55.682,66.445-75.145c24.461-14.855,51.84-24.341,101.679-25.244
		C601.216,382.432,598.721,346.26,557.056,338.895z"/>
</g>
<g id="layer1_1_" transform="translate(-200.55198,-393.96227)">
	<g id="g3019" transform="matrix(1.018827,0,0,-1.018827,170.5996,498.03288)">
		<path id="path28_1_" fill="#FFFFFF" d="M109.495-101.774V2.533H74.828v-104.307H109.495z M92.168,16.775c12.081,0,19.612,8.01,19.612,18.021c-0.224,10.233-7.531,18.021-19.385,18.021 c-11.864,0-19.615-7.788-19.615-18.021c0-10.011,7.521-18.021,19.159-18.021H92.168L92.168,16.775z"/>
		<path id="path30_1_" fill="#FFFFFF" d="M128.681-101.774h34.673v58.249 c0,3.119,0.226,6.235,1.143,8.462c2.5,6.232,8.209,12.681,17.784,12.681c12.547,0,17.562-9.568,17.562-23.588v-55.804h34.666 v59.81c0,32.039-17.1,46.946-39.913,46.946c-18.701,0-26.915-10.45-31.476-17.571h0.234V2.533h-34.673 C129.141-7.253,128.681-101.774,128.681-101.774L128.681-101.774z"/>
	</g>
</g>
</svg>
