<svg xmlns="http://www.w3.org/2000/svg" width="100" height="100" viewBox="0 0 100 100"><path fill="#FFFFFF" d="M91.875 22.01h-83.873c-1.658 0-3.002 1.345-3.002 3.002v52.638c0 1.66 1.344 3.002 3.002 3.002h83.873c1.658 0 3.002-1.342 3.002-3.002v-52.638c0-1.657-1.344-3.002-3.002-3.002zm-80.871 8.502l26.834 19.916-26.834 21.873v-41.789zm38.934 22.353l-33.483-24.851h66.969l-33.486 24.851zm-8.37.328l6.805 5.053c.465.344 1.016.516 1.565.516s1.101-.172 1.565-.516l7.025-5.217.039.039 26.134 21.58h-69.453l26.32-21.455zm20.682-2.925l26.623-19.756v41.742l-26.623-21.986z"/></svg>